<?xml version="1.0" standalone="no"?>
<!DOCTYPE svg PUBLIC "-//W3C//DTD SVG 20010904//EN"
 "http://www.w3.org/TR/2001/REC-SVG-20010904/DTD/svg10.dtd">
<svg version="1.0" xmlns="http://www.w3.org/2000/svg"
 width="512.000000pt" height="512.000000pt" viewBox="0 0 512.000000 512.000000"
 preserveAspectRatio="xMidYMid meet">

<g transform="translate(0.000000,512.000000) scale(0.100000,-0.100000)"
fill="#ffff" stroke="none">
<path d="M176 4224 c-32 -10 -64 -31 -95 -62 -88 -88 -81 45 -81 -1602 0
-1647 -7 -1514 80 -1601 69 -69 111 -79 335 -79 209 0 258 10 323 66 24 20 53
55 65 78 l22 41 0 1495 0 1495 -22 41 c-30 57 -97 111 -157 129 -70 21 -401
20 -470 -1z"/>
<path d="M1232 4221 c-65 -23 -117 -70 -148 -136 l-24 -50 0 -890 0 -890 24
-50 c29 -63 68 -102 131 -131 47 -23 61 -24 260 -24 199 0 213 1 260 24 28 12
67 41 87 64 71 79 69 44 66 1028 l-3 879 -24 47 c-29 57 -61 88 -121 120 -42
22 -57 23 -250 26 -179 2 -212 0 -258 -17z"/>
<path d="M2290 4221 c-65 -23 -143 -101 -160 -159 -6 -24 -10 -344 -10 -927 0
-1004 -5 -931 80 -1013 65 -64 103 -72 329 -72 108 0 213 5 233 10 62 18 120
69 153 135 l30 60 3 860 c2 594 -1 875 -8 912 -16 74 -64 139 -130 177 l-55
31 -205 3 c-181 2 -211 0 -260 -17z"/>
<path d="M3376 4224 c-65 -20 -137 -93 -160 -160 -15 -46 -16 -132 -14 -940
l3 -889 22 -40 c28 -53 78 -99 133 -124 41 -19 65 -21 255 -21 200 0 212 1
260 24 60 29 107 76 134 136 20 44 21 62 21 927 0 867 0 883 -21 937 -25 69
-91 130 -162 151 -71 21 -401 20 -471 -1z"/>
<path d="M4470 4225 c-57 -18 -124 -74 -153 -129 l-22 -41 0 -1495 0 -1495 22
-41 c12 -23 41 -58 65 -78 65 -56 114 -66 323 -66 224 0 266 10 335 79 87 87
80 -46 80 1601 0 1647 7 1514 -80 1601 -70 70 -111 79 -339 78 -129 0 -200 -5
-231 -14z"/>
<path d="M1155 1789 c-38 -23 -80 -51 -92 -62 -29 -26 -31 -77 -3 -102 16 -14
24 -15 51 -6 18 6 34 11 35 11 2 0 4 -128 4 -284 0 -225 3 -286 13 -295 19
-15 72 -25 101 -17 57 14 56 6 56 394 0 196 -4 362 -8 368 -10 16 -47 34 -69
34 -10 0 -49 -19 -88 -41z"/>
<path d="M1572 1816 c-82 -27 -137 -83 -153 -157 -23 -99 39 -156 121 -114 23
12 31 25 36 56 12 74 90 104 139 54 51 -50 23 -116 -85 -200 -144 -113 -166
-133 -195 -173 -24 -35 -30 -55 -33 -112 -2 -38 -2 -80 2 -93 10 -41 43 -47
266 -47 205 0 209 0 224 22 21 30 20 81 -1 107 -17 19 -29 21 -170 23 l-152 3
12 25 c7 14 53 56 102 93 130 99 174 142 201 200 57 123 8 251 -115 303 -52
22 -148 27 -199 10z"/>
<path d="M2055 1789 c-38 -23 -80 -51 -92 -62 -29 -26 -31 -77 -3 -102 16 -14
24 -15 51 -6 18 6 34 11 35 11 2 0 4 -128 4 -284 0 -225 3 -286 13 -295 19
-15 72 -25 101 -17 57 14 56 6 56 394 0 196 -4 362 -8 368 -10 16 -47 34 -69
34 -10 0 -49 -19 -88 -41z"/>
<path d="M2467 1815 c-98 -32 -168 -133 -151 -220 18 -99 164 -77 164 25 0 26
47 60 82 60 36 0 78 -40 78 -75 0 -56 -36 -98 -175 -202 -98 -74 -129 -107
-149 -155 -16 -38 -22 -164 -8 -184 19 -29 56 -34 261 -34 206 0 210 0 225 22
21 30 20 81 -1 107 -17 19 -29 21 -170 23 l-152 3 12 25 c7 14 53 56 102 93
50 38 110 87 134 110 138 131 115 325 -48 393 -54 23 -148 27 -204 9z"/>
<path d="M3059 1823 c-48 -7 -132 -66 -156 -108 -23 -40 -31 -127 -15 -151 40
-60 152 -28 152 44 0 12 11 34 25 47 61 62 164 -3 134 -83 -14 -38 -60 -83
-170 -168 -136 -104 -169 -158 -169 -272 0 -43 5 -58 25 -77 24 -25 24 -25
238 -25 203 0 215 1 232 20 11 12 19 36 19 55 0 19 -8 43 -19 55 -17 18 -30
20 -167 20 -83 0 -148 4 -148 9 0 27 23 50 129 130 161 122 204 183 204 291 0
66 -18 104 -72 153 -59 53 -145 75 -242 60z"/>
<path d="M3500 1777 c-96 -59 -115 -89 -89 -135 15 -28 44 -34 82 -17 16 7 17
-10 17 -273 l0 -281 28 -21 c21 -17 36 -21 69 -17 77 8 73 -14 73 398 l0 368
-22 15 c-37 26 -68 18 -158 -37z"/>
<path d="M3855 1789 c-38 -23 -80 -51 -92 -62 -29 -26 -31 -77 -3 -102 16 -14
24 -15 51 -6 18 6 34 11 35 11 2 0 4 -128 4 -284 0 -317 -3 -305 73 -313 33
-4 48 0 70 17 l27 21 0 357 c0 196 -4 362 -8 368 -10 16 -47 34 -69 34 -10 0
-49 -19 -88 -41z"/>
</g>
</svg>
