<?xml version="1.0" standalone="no"?>
<!DOCTYPE svg PUBLIC "-//W3C//DTD SVG 20010904//EN"
 "http://www.w3.org/TR/2001/REC-SVG-20010904/DTD/svg10.dtd">
<svg version="1.0" xmlns="http://www.w3.org/2000/svg"
 width="512.000000pt" height="512.000000pt" viewBox="0 0 512.000000 512.000000"
 preserveAspectRatio="xMidYMid meet">

<g transform="translate(0.000000,512.000000) scale(0.100000,-0.100000)"
fill="#ffffff" stroke="none">
<path d="M109 5097 c-24 -13 -57 -43 -74 -66 l-30 -43 -3 -1026 c-2 -711 0
-1038 8 -1064 14 -48 53 -94 101 -119 38 -19 61 -19 1082 -17 l1043 3 36 24
c19 13 46 40 59 59 l24 36 3 1043 c2 1011 2 1044 -17 1081 -24 47 -56 77 -103
97 -33 13 -160 15 -1061 15 l-1024 0 -44 -23z"/>
<path d="M2880 5104 c-45 -20 -77 -50 -101 -96 -19 -37 -19 -70 -17 -1081 l3
-1043 24 -36 c13 -19 40 -46 59 -59 l36 -24 1043 -3 c1021 -2 1044 -2 1082 17
48 25 87 71 101 119 8 26 10 353 8 1064 l-3 1026 -30 43 c-16 23 -50 53 -74
66 l-44 23 -1026 0 c-894 -1 -1031 -3 -1061 -16z"/>
<path d="M115 2343 c-46 -24 -76 -54 -96 -98 -18 -38 -19 -90 -19 -1066 l0
-1026 23 -44 c13 -24 43 -57 66 -74 l43 -30 1026 -3 c711 -2 1038 0 1064 8 48
14 94 53 119 101 19 38 19 61 17 1082 l-3 1043 -24 36 c-13 19 -40 46 -59 59
l-36 24 -1045 2 c-939 2 -1049 1 -1076 -14z"/>
<path d="M3855 2341 c-50 -22 -91 -69 -105 -119 -6 -23 -10 -193 -10 -439 l0
-403 -402 0 c-247 0 -417 -4 -440 -10 -160 -45 -186 -266 -43 -355 l48 -30
419 -3 418 -3 0 -408 0 -407 26 -53 c63 -126 222 -147 317 -42 53 59 57 95 57
526 l0 385 385 0 c431 0 467 4 526 57 105 95 84 254 -42 317 l-53 26 -407 0
-408 0 -3 418 -3 419 -30 48 c-54 87 -157 118 -250 76z"/>
</g>
</svg>
