<?xml version="1.0" standalone="no"?>
<!DOCTYPE svg PUBLIC "-//W3C//DTD SVG 20010904//EN"
 "http://www.w3.org/TR/2001/REC-SVG-20010904/DTD/svg10.dtd">
<svg version="1.0" xmlns="http://www.w3.org/2000/svg"
 width="512.000000pt" height="512.000000pt" viewBox="0 0 512.000000 512.000000"
 preserveAspectRatio="xMidYMid meet">

<g transform="translate(0.000000,512.000000) scale(0.100000,-0.100000)"
fill="#ffff
" stroke="none">
<path d="M2530 3770 c-1452 -675 -2502 -1169 -2512 -1181 -10 -12 -18 -31 -18
-44 0 -13 8 -32 18 -44 22 -26 1435 -721 1467 -721 21 0 425 296 1196 876 98
74 181 134 184 134 4 0 -232 -245 -524 -544 -291 -299 -533 -554 -536 -567 -3
-13 19 -343 49 -734 l55 -710 26 -22 c14 -13 34 -23 44 -23 10 0 32 10 49 23
17 12 189 206 383 432 193 226 357 416 364 423 10 11 95 -26 476 -208 255
-122 477 -222 492 -222 16 -1 37 8 49 20 15 14 211 627 669 2084 357 1134 652
2080 655 2100 5 31 2 41 -19 62 -15 14 -36 26 -49 26 -13 0 -1146 -522 -2518
-1160z"/>
</g>
</svg>
