<?xml version="1.0" standalone="no"?>
<!DOCTYPE svg PUBLIC "-//W3C//DTD SVG 20010904//EN"
 "http://www.w3.org/TR/2001/REC-SVG-20010904/DTD/svg10.dtd">
<svg version="1.0" xmlns="http://www.w3.org/2000/svg"
 width="512.000000pt" height="512.000000pt" viewBox="0 0 512.000000 512.000000"
 preserveAspectRatio="xMidYMid meet">

<g transform="translate(0.000000,512.000000) scale(0.100000,-0.100000)"
fill="##ff9a00" stroke="none">
<path d="M500 5113 c-106 -18 -223 -77 -307 -157 -79 -74 -134 -162 -166 -261
l-22 -70 0 -1875 c0 -1792 1 -1878 18 -1935 52 -170 163 -304 308 -373 46 -22
108 -45 137 -51 36 -8 362 -11 1022 -11 l969 0 21 73 c12 39 37 124 56 188 19
64 34 119 34 123 0 3 -449 6 -999 6 -719 0 -1008 3 -1032 11 -53 18 -99 58
-120 103 -18 40 -19 102 -19 1744 l0 1702 1975 0 1975 0 0 -835 0 -836 28 15
c76 39 252 61 340 41 l33 -7 -4 959 c-3 1058 1 992 -68 1132 -41 84 -161 205
-246 249 -34 18 -96 41 -139 52 -76 20 -115 20 -1923 19 -1015 -1 -1857 -4
-1871 -6z"/>
<path d="M990 3340 l0 -200 198 2 197 3 3 198 2 197 -200 0 -200 0 0 -200z"/>
<path d="M1780 3340 l0 -200 990 0 990 0 0 200 0 200 -990 0 -990 0 0 -200z"/>
<path d="M990 2550 l0 -200 198 2 197 3 0 195 0 195 -197 3 -198 2 0 -200z"/>
<path d="M1780 2550 l0 -200 990 0 990 0 0 200 0 200 -990 0 -990 0 0 -200z"/>
<path d="M4515 2311 c-23 -11 -95 -75 -170 -150 l-130 -131 300 -300 300 -300
128 128 c71 70 138 145 150 167 28 54 28 136 0 190 -30 56 -359 380 -405 400
-50 20 -124 19 -173 -4z"/>
<path d="M990 1760 l0 -200 198 2 197 3 0 195 0 195 -197 3 -198 2 0 -200z"/>
<path d="M1780 1760 l0 -200 703 0 702 0 200 200 200 200 -903 0 -902 0 0
-200z"/>
<path d="M3508 1343 l-497 -498 -100 -340 c-134 -459 -124 -419 -107 -453 8
-16 29 -35 46 -42 30 -12 58 -6 403 96 l372 109 498 489 c274 269 500 493 504
499 3 5 -136 151 -308 323 l-314 314 -497 -497z m-185 -632 c76 -16 139 -30
141 -32 5 -5 65 -303 62 -306 -5 -5 -377 -113 -389 -113 -7 0 -30 18 -52 40
l-38 39 58 201 c33 110 64 200 70 200 5 -1 72 -14 148 -29z"/>
</g>
</svg>
