<?xml version="1.0" standalone="no"?>
<!DOCTYPE svg PUBLIC "-//W3C//DTD SVG 20010904//EN"
 "http://www.w3.org/TR/2001/REC-SVG-20010904/DTD/svg10.dtd">
<svg version="1.0" xmlns="http://www.w3.org/2000/svg"
 width="512.000000pt" height="512.000000pt" viewBox="0 0 512.000000 512.000000"
 preserveAspectRatio="xMidYMid meet">

<g transform="translate(0.000000,512.000000) scale(0.100000,-0.100000)"
fill="#232443" stroke="none">
<path d="M1075 5110 c-379 -6 -387 -8 -480 -78 -69 -52 -122 -125 -146 -202
-20 -65 -20 -75 -14 -1710 4 -905 10 -1726 14 -1825 7 -166 10 -184 34 -235
34 -72 84 -130 147 -170 102 -65 45 -62 1125 -61 l980 2 458 457 457 457 0
920 c0 506 -3 997 -7 1092 l-6 172 -386 3 c-372 3 -388 4 -446 25 -163 62
-294 203 -341 368 -14 50 -18 120 -21 428 l-5 367 -511 -2 c-282 -1 -665 -5
-852 -8z m1978 -1841 c12 -7 25 -17 29 -23 14 -21 8 -66 -12 -86 -20 -20 -33
-20 -1029 -20 l-1010 0 -20 26 c-27 35 -26 59 4 89 l24 25 996 0 c731 0 1002
-3 1018 -11z m-1339 -600 c32 -25 35 -70 6 -99 -20 -20 -31 -20 -357 -18
l-336 3 -20 27 c-17 23 -19 33 -11 55 17 50 34 53 375 53 305 0 317 -1 343
-21z m541 -4 c30 -30 31 -54 4 -89 l-21 -27 -150 3 c-150 3 -151 3 -171 29
-15 22 -17 33 -10 55 15 46 44 54 191 54 128 0 134 -1 157 -25z"/>
<path d="M2580 4749 c0 -151 5 -303 10 -339 19 -120 81 -215 183 -281 87 -56
122 -61 466 -57 l303 3 -481 474 -481 473 0 -273z"/>
<path d="M4157 2052 l-97 -97 225 -225 225 -225 100 100 100 100 -222 222
c-123 123 -225 223 -228 223 -3 0 -49 -44 -103 -98z"/>
<path d="M3387 1282 l-567 -567 225 -225 225 -225 570 570 570 570 -222 222
c-123 123 -225 223 -228 223 -3 0 -260 -255 -573 -568z"/>
<path d="M2748 574 c-11 -18 -190 -565 -187 -568 2 -2 133 40 292 93 l287 96
-194 194 c-106 106 -196 189 -198 185z"/>
</g>
</svg>
