<?xml version="1.0" standalone="no"?>
<!DOCTYPE svg PUBLIC "-//W3C//DTD SVG 20010904//EN"
 "http://www.w3.org/TR/2001/REC-SVG-20010904/DTD/svg10.dtd">
<svg version="1.0" xmlns="http://www.w3.org/2000/svg"
 width="512.000000pt" height="512.000000pt" viewBox="0 0 512.000000 512.000000"
 preserveAspectRatio="xMidYMid meet">

<g transform="translate(0.000000,512.000000) scale(0.100000,-0.100000)"
fill="#6D6D6D" stroke="none">
<path d="M1760 5114 c-478 -45 -865 -222 -1187 -542 -292 -290 -475 -651 -538
-1062 -22 -139 -22 -401 -1 -539 64 -414 245 -772 539 -1063 288 -287 644
-465 1057 -529 110 -17 409 -17 525 0 757 110 1375 664 1559 1397 75 299 75
631 1 924 -195 771 -864 1340 -1655 1410 -109 9 -223 11 -300 4z m316 -619
c410 -58 774 -325 959 -704 85 -174 125 -349 125 -552 0 -336 -119 -632 -350
-873 -327 -341 -787 -471 -1245 -351 -395 103 -729 412 -869 803 -71 200 -90
464 -47 669 114 547 549 946 1106 1016 73 9 228 5 321 -8z"/>
<path d="M3624 2071 c-17 -10 -64 -61 -104 -112 -108 -136 -219 -249 -353
-356 -64 -52 -124 -107 -132 -123 -23 -44 -19 -111 8 -152 30 -43 964 -1146
1026 -1211 120 -125 300 -149 445 -60 22 14 150 134 282 267 262 261 287 296
303 406 16 123 -18 216 -117 312 -87 84 -1188 1015 -1222 1033 -40 20 -99 19
-136 -4z"/>
</g>
</svg>
