<?xml version="1.0" standalone="no"?>
<!DOCTYPE svg PUBLIC "-//W3C//DTD SVG 20010904//EN"
 "http://www.w3.org/TR/2001/REC-SVG-20010904/DTD/svg10.dtd">
<svg version="1.0" xmlns="http://www.w3.org/2000/svg"
 width="512.000000pt" height="512.000000pt" viewBox="0 0 512.000000 512.000000"
 preserveAspectRatio="xMidYMid meet">

<g transform="translate(0.000000,512.000000) scale(0.100000,-0.100000)"
fill="#000000" stroke="none">
<path d="M385 5110 c-178 -36 -319 -165 -366 -335 -12 -42 -14 -403 -14 -2220
0 -2040 1 -2173 18 -2225 46 -146 175 -270 322 -311 75 -21 4355 -21 4430 0
144 40 265 154 320 301 20 54 20 73 23 1707 l2 1651 -21 59 c-20 55 -52 89
-580 618 l-559 560 0 -340 c0 -383 -6 -428 -66 -526 -67 -110 -188 -191 -316
-209 -82 -12 -1954 -12 -2036 0 -124 17 -236 90 -308 197 -70 105 -73 130 -73
636 l-1 447 -367 -1 c-203 -1 -386 -5 -408 -9z m3794 -2365 c56 -31 106 -88
128 -148 8 -23 12 -240 12 -807 1 -759 0 -776 -20 -820 -39 -86 -111 -142
-205 -160 -89 -17 -3065 -10 -3115 8 -54 18 -128 89 -155 147 l-24 50 0 771
c0 558 3 780 12 805 18 53 64 115 104 140 83 51 3 48 1659 46 l1550 -2 54 -30z"/>
<path d="M1315 2326 c-41 -18 -82 -67 -96 -116 -22 -72 25 -166 98 -196 48
-21 2438 -21 2486 0 72 30 119 126 98 198 -15 48 -56 97 -98 114 -47 20 -2443
20 -2488 0z"/>
<path d="M1650 1638 c-52 -27 -78 -60 -90 -114 -17 -74 27 -161 97 -190 48
-21 1758 -21 1806 0 70 29 114 116 97 190 -12 54 -38 87 -90 114 l-44 22 -866
0 -866 0 -44 -22z"/>
<path d="M1500 4690 c0 -352 3 -436 14 -458 31 -60 -20 -57 1050 -57 931 0
982 1 1008 18 14 10 31 32 37 49 7 20 11 178 11 454 l0 424 -1060 0 -1060 0 0
-430z"/>
</g>
</svg>
